<svg width="161" height="49" viewBox="0 0 161 49" fill="none" xmlns="http://www.w3.org/2000/svg">
<path d="M0.019169 23.3931L0 23.4578C0.0167757 23.4362 0.0359456 23.4146 0.0575144 23.3931H0.019169Z" fill="white"/>
<path d="M74.4985 17.833C75.6777 18.6057 76.2164 20.0589 75.8218 21.4129L75.543 22.3746L72.8445 31.6869L72.5775 32.6084H70.2146L70.2287 32.5565L73.5061 21.2546C73.6928 20.6071 73.4163 19.9148 72.8303 19.5792C71.8143 18.998 70.6375 18.6648 69.3852 18.6648C67.268 18.6648 65.3705 19.6123 64.0946 21.1057V21.1081L62.4878 26.6444V26.6468L61.3867 30.4416V30.444L60.7628 32.6084H58.3999L60.113 26.6964V26.694L62.1121 19.799L62.1144 19.7966L67.8516 0H70.2146L65.2004 17.2967C66.4599 16.661 67.8823 16.3042 69.3875 16.3042C71.2731 16.3042 73.0288 16.8666 74.4985 17.833Z" fill="white"/>
<path d="M142.551 17.8331C143.73 18.6058 144.269 20.059 143.874 21.413L143.595 22.3747L140.897 31.687L140.63 32.6085H138.267L138.281 32.5566L141.558 21.2547C141.745 20.6072 141.469 19.9149 140.883 19.5793C139.867 18.9981 138.69 18.6649 137.437 18.6649C135.32 18.6649 133.423 19.6124 132.147 21.1058V21.1082L130.54 26.6445V26.6469L129.439 30.4417V30.4441L128.815 32.6085H126.452L128.165 26.6965V26.6941L130.164 19.7991L130.167 19.7967L131.178 16.3043H133.541L133.253 17.2968C134.512 16.6611 135.935 16.3043 137.44 16.3043C139.325 16.3043 141.081 16.8667 142.551 17.8331Z" fill="white"/>
<path d="M85.3678 32.3722H77.7449C76.0673 32.3722 74.7039 31.0088 74.7039 29.3312V29.1539L77.5843 19.0217C78.0285 17.344 79.1745 16.3043 80.5805 16.3043H88.2033C89.881 16.3043 91.2444 17.6677 91.2444 19.3454V19.5226L88.364 29.6549C87.9221 31.3326 86.7761 32.3722 85.3678 32.3722ZM77.081 29.4658C77.1424 29.7754 77.4189 30.0093 77.7449 30.0093H85.3678C85.734 30.0093 85.9892 29.3973 86.0837 29.0358L86.0979 28.9838L88.8673 19.2107C88.8058 18.9012 88.5294 18.6673 88.2033 18.6673H80.5805C80.2142 18.6673 79.959 19.2792 79.8645 19.6408L79.8503 19.6928L77.081 29.4658Z" fill="white"/>
<path d="M57.9227 25.3543L56.701 29.6549C56.2592 31.3326 55.1131 32.3722 53.7048 32.3722H46.082C45.6118 32.3722 45.1652 32.2659 44.7659 32.0722C43.9436 31.6752 43.3268 30.9214 43.1189 30.0093H53.7048C54.0711 30.0093 54.3263 29.3973 54.4208 29.0358L54.435 28.9838L55.503 25.2126C55.4014 24.9763 55.1628 24.8109 54.8863 24.8109H44.2767L45.9213 19.0217C46.3632 17.344 47.5092 16.3043 48.9175 16.3043H56.5403C57.9841 16.3043 59.1963 17.3157 59.5035 18.6673H48.9175C48.5513 18.6673 48.2961 19.2792 48.2016 19.6408L48.1874 19.6928L47.4076 22.4479H54.8863C55.3565 22.4479 55.8031 22.5543 56.2024 22.748C57.1831 23.2206 57.873 24.2036 57.9227 25.3543Z" fill="white"/>
<path d="M156.742 30.0092L156.627 30.4062C156.731 30.1746 156.818 29.9218 156.889 29.6548L159.134 21.7626L156.742 30.0092Z" fill="white"/>
<path d="M158.352 16.3043L158.236 16.7037C157.792 16.4508 157.277 16.3043 156.729 16.3043H149.106C147.697 16.3043 146.551 17.344 146.11 19.0217L143.229 29.1539V29.3312C143.229 31.0088 144.593 32.3722 146.27 32.3722H153.695L153.626 32.6085L152.941 34.9715L149.928 45.3684L149.654 46.3135H143.907C143.579 46.3135 143.305 46.0796 143.243 45.7701L143.229 45.3684H140.892L140.866 45.4582V45.6354C140.866 47.3131 142.23 48.6765 143.907 48.6765H151.332L152.017 46.3135L152.291 45.3684L155.304 34.9715L155.989 32.6085L156.627 30.4063L156.743 30.0093L159.134 21.7627L160.715 16.3043H158.352ZM154.623 28.9838L154.609 29.0358C154.514 29.3973 154.259 30.0093 153.893 30.0093H146.27C145.942 30.0093 145.668 29.7754 145.606 29.4658L148.376 19.6928L148.39 19.6408C148.484 19.2792 148.739 18.6673 149.106 18.6673H156.729C157.057 18.6673 157.331 18.9012 157.393 19.2107L154.623 28.9838Z" fill="white"/>
<path d="M103.799 16.3043H93.8438L84.3921 48.9128H86.755L91.6912 31.8855C92.1661 32.1927 92.7332 32.3723 93.3405 32.3723H100.963C102.372 32.3723 103.518 31.3326 103.96 29.6549L106.84 19.5226V19.3454C106.84 17.6677 105.477 16.3043 103.799 16.3043ZM101.693 28.9838L101.679 29.0358C101.585 29.3973 101.33 30.0093 100.963 30.0093H93.3405C93.0121 30.0093 92.738 29.7754 92.6765 29.4658L95.4459 19.6928L95.4601 19.6408C95.5546 19.2792 95.8098 18.6673 96.176 18.6673H103.799C104.127 18.6673 104.401 18.9012 104.463 19.2107L101.693 28.9838Z" fill="white"/>
<path d="M119.394 16.3043H109.439L99.9875 48.9128H102.35L107.287 31.8855C107.762 32.1927 108.329 32.3723 108.936 32.3723H116.559C117.967 32.3723 119.113 31.3326 119.555 29.6549L122.435 19.5226V19.3454C122.435 17.6677 121.072 16.3043 119.394 16.3043ZM117.289 28.9838L117.275 29.0358C117.18 29.3973 116.925 30.0093 116.559 30.0093H108.936C108.608 30.0093 108.333 29.7754 108.272 29.4658L111.041 19.6928L111.056 19.6408C111.15 19.2792 111.405 18.6673 111.771 18.6673H119.394C119.723 18.6673 119.997 18.9012 120.058 19.2107L117.289 28.9838Z" fill="white"/>
<path d="M126.15 16.3043H128.513L123.853 32.3722H121.49L126.15 16.3043Z" fill="white"/>
<path d="M130.705 8.74292L130.02 11.1059H127.657L128.342 8.74292H130.705Z" fill="white"/>
<rect x="12" y="18" width="25" height="12" fill="white"/>
<path fill-rule="evenodd" clip-rule="evenodd" d="M11.661 16.0679H41.3394C42.2775 16.0679 43.0407 16.8311 43.0407 17.7692L39.4963 30.6684C39.4963 31.6065 38.7354 32.3697 37.795 32.3697H8.1166C7.17851 32.3697 6.41528 31.6089 6.41528 30.6684L9.95968 17.7692C9.95968 16.8311 10.7205 16.0679 11.661 16.0679ZM20.9119 27.3509L22.2753 22.5565H22.2729V22.4738C22.2729 21.6798 21.6278 21.0348 20.8339 21.0348H17.2281C16.609 21.0348 16.0986 21.4577 15.8599 22.1524H20.8339C20.9898 22.1524 21.1198 22.2635 21.1482 22.41L20.6732 24.0853C20.4464 23.9931 20.0518 23.9412 19.8273 23.9412H16.2214C15.841 23.9412 15.5008 24.1018 15.2408 24.3878C15.2314 24.3972 15.2219 24.409 15.2148 24.4185L15.0329 25.0588L14.4492 27.1146V27.1973C14.4492 27.9912 15.0943 28.6363 15.8883 28.6363H19.4941C20.1605 28.6363 20.7039 28.1448 20.9119 27.3509ZM24.832 28.6363H26.6491C27.2681 28.6363 27.7785 28.2133 28.0172 27.5163H24.832C24.676 27.5163 24.546 27.4052 24.5177 27.2587L25.4912 23.8277H25.6448C26.6822 23.8277 26.7717 23.5203 26.9234 22.9993C26.9496 22.9091 26.9778 22.8125 27.013 22.7101H25.8079L25.8291 22.6368L25.8362 22.6132C25.8598 22.5234 26.4128 21.0348 26.4128 21.0348L26.7861 19.806H26.6207C25.9544 19.806 25.4109 20.2975 25.2029 21.0915L24.6453 22.7124H22.8707C23.0149 23.3528 23.5891 23.8301 24.272 23.8301H24.3263L23.3929 27.1146V27.1973C23.3929 27.9912 24.038 28.6363 24.832 28.6363ZM32.762 27.3509L35.243 22.5565V22.4738C35.243 21.9256 34.9359 21.4483 34.4822 21.2049L33.5654 23.2701L31.6892 27.0342L31.6821 27.0579C31.6372 27.228 31.5167 27.5186 31.3442 27.5186H31.0914C30.9354 27.5186 30.8055 27.4076 30.7771 27.2611L29.9879 22.599C29.9983 22.562 30.2216 22.5217 30.4529 22.4799C30.6948 22.4362 30.9455 22.3909 30.9709 22.3462L31.356 21.0348H30.1958C29.5295 21.0348 28.986 21.5262 28.7781 22.3202L29.6523 27.1146V27.1973C29.6523 27.9912 30.2974 28.6363 31.0914 28.6363H31.3442C32.0105 28.6363 32.554 28.1448 32.762 27.3509ZM16.1978 25.0588H19.8296C19.9643 25.0588 20.2502 25.1415 20.34 25.262L19.8391 27.0342L19.832 27.0579C19.7871 27.228 19.6666 27.5187 19.4941 27.5187H15.8882C15.7323 27.5187 15.6023 27.4076 15.574 27.2611L16.1978 25.0588Z" fill="#C4C4C4"/>
<path fill-rule="evenodd" clip-rule="evenodd" d="M11.661 16.0679H41.3394C42.2775 16.0679 43.0407 16.8311 43.0407 17.7692L39.4963 30.6684C39.4963 31.6065 38.7354 32.3697 37.795 32.3697H8.1166C7.17851 32.3697 6.41528 31.6089 6.41528 30.6684L9.95968 17.7692C9.95968 16.8311 10.7205 16.0679 11.661 16.0679ZM20.9119 27.3509L22.2753 22.5565H22.2729V22.4738C22.2729 21.6798 21.6278 21.0348 20.8339 21.0348H17.2281C16.609 21.0348 16.0986 21.4577 15.8599 22.1524H20.8339C20.9898 22.1524 21.1198 22.2635 21.1482 22.41L20.6732 24.0853C20.4464 23.9931 20.0518 23.9412 19.8273 23.9412H16.2214C15.841 23.9412 15.5008 24.1018 15.2408 24.3878C15.2314 24.3972 15.2219 24.409 15.2148 24.4185L15.0329 25.0588L14.4492 27.1146V27.1973C14.4492 27.9912 15.0943 28.6363 15.8883 28.6363H19.4941C20.1605 28.6363 20.7039 28.1448 20.9119 27.3509ZM24.832 28.6363H26.6491C27.2681 28.6363 27.7785 28.2133 28.0172 27.5163H24.832C24.676 27.5163 24.546 27.4052 24.5177 27.2587L25.4912 23.8277H25.6448C26.6822 23.8277 26.7717 23.5203 26.9234 22.9993C26.9496 22.9091 26.9778 22.8125 27.013 22.7101H25.8079L25.8291 22.6368L25.8362 22.6132C25.8598 22.5234 26.4128 21.0348 26.4128 21.0348L26.7861 19.806H26.6207C25.9544 19.806 25.4109 20.2975 25.2029 21.0915L24.6453 22.7124H22.8707C23.0149 23.3528 23.5891 23.8301 24.272 23.8301H24.3263L23.3929 27.1146V27.1973C23.3929 27.9912 24.038 28.6363 24.832 28.6363ZM32.762 27.3509L35.243 22.5565V22.4738C35.243 21.9256 34.9359 21.4483 34.4822 21.2049L33.5654 23.2701L31.6892 27.0342L31.6821 27.0579C31.6372 27.228 31.5167 27.5186 31.3442 27.5186H31.0914C30.9354 27.5186 30.8055 27.4076 30.7771 27.2611L29.9879 22.599C29.9983 22.562 30.2216 22.5217 30.4529 22.4799C30.6948 22.4362 30.9455 22.3909 30.9709 22.3462L31.356 21.0348H30.1958C29.5295 21.0348 28.986 21.5262 28.7781 22.3202L29.6523 27.1146V27.1973C29.6523 27.9912 30.2974 28.6363 31.0914 28.6363H31.3442C32.0105 28.6363 32.554 28.1448 32.762 27.3509ZM16.1978 25.0588H19.8296C19.9643 25.0588 20.2502 25.1415 20.34 25.262L19.8391 27.0342L19.832 27.0579C19.7871 27.228 19.6666 27.5187 19.4941 27.5187H15.8882C15.7323 27.5187 15.6023 27.4076 15.574 27.2611L16.1978 25.0588Z" fill="url(#paint0_linear)"/>
<defs>
<linearGradient id="paint0_linear" x1="7.55806" y1="29.2447" x2="38.8585" y2="43.3093" gradientUnits="userSpaceOnUse">
<stop stop-color="#DA3F81"/>
<stop offset="1" stop-color="#FC8D82"/>
</linearGradient>
</defs>
</svg>
